# xmcd CD database file
#
# Track frame offsets:
#	150
#	18635
#	37968
#	55270
#	78870
#	94710
#	109405
#	129048
#	150295
#	167928
#
# Disc length: 2517 seconds
#
# Revision: 0
# Processed by: cddbd v1.5.1PL0 Copyright (c) Steve Scherf et al.
# Submitted via: CDex 1.51
#
DISCID=6e09d30a
DTITLE=James Peterson - Rough and ready
DYEAR=1990
DGENRE=Blues
TTITLE0=Ifell in love with a prostitute
TTITLE1=Chicken biddy
TTITLE2=Takin' inventory
TTITLE3=All on acount of you
TTITLE4=Bait cost more than fish
TTITLE5=Can't teach on old dog new tricks
TTITLE6=Mind is a terrible thing to waste
TTITLE7=Sing the blues until i die
TTITLE8=Up for adoption
TTITLE9=clotheline
EXTD=YEAR: 1990
EXTT0=
EXTT1=
EXTT2=
EXTT3=
EXTT4=
EXTT5=
EXTT6=
EXTT7=
EXTT8=
EXTT9=
PLAYORDER=
